<svg xmlns="http://www.w3.org/2000/svg" viewBox="0 0 900 600" preserveAspectRatio="xMidYMid slice">
<defs>
<linearGradient id="cielo" x1="0" y1="0" x2="0" y2="1">
<stop offset="0%" stop-color="#F3E9D2"/>
<stop offset="100%" stop-color="#EAD9B4"/>
</linearGradient>
</defs>
<rect width="900" height="600" fill="url(#cielo)"/>
<circle cx="700" cy="140" r="70" fill="#C9962C" opacity="0.85"/>
<polygon points="0,340 150,180 260,320 380,150 520,330 650,190 780,320 900,260 900,600 0,600" fill="#2C5F6F" opacity="0.25"/>
<polygon points="0,400 180,240 320,380 480,220 620,380 760,260 900,340 900,600 0,600" fill="#2C5F6F" opacity="0.55"/>
<rect x="0" y="430" width="900" height="170" fill="#3E7A8C"/>
<path d="M0 430 Q225 400 450 430 T900 430" fill="none" stroke="#F3E9D2" stroke-width="3" opacity="0.5"/>
<path d="M0 460 Q225 440 450 460 T900 460" fill="none" stroke="#F3E9D2" stroke-width="2" opacity="0.35"/>
<g opacity="0.9">
<path d="M120 560 C160 520 200 520 220 560" stroke="#F3E9D2" stroke-width="10" fill="none" stroke-linecap="round"/>
<path d="M260 560 C300 510 340 510 360 560" stroke="#F3E9D2" stroke-width="10" fill="none" stroke-linecap="round"/>
<path d="M400 560 C440 520 480 520 500 560" stroke="#F3E9D2" stroke-width="10" fill="none" stroke-linecap="round"/>
<path d="M540 560 C580 510 620 510 640 560" stroke="#F3E9D2" stroke-width="10" fill="none" stroke-linecap="round"/>
<path d="M680 560 C720 520 760 520 780 560" stroke="#F3E9D2" stroke-width="10" fill="none" stroke-linecap="round"/>
</g>
<circle cx="150" cy="510" r="10" fill="#8B1E3F"/>
<circle cx="165" cy="500" r="10" fill="#8B1E3F"/>
<path d="M150 510 L155 490 M165 500 L170 480" stroke="#4A7C59" stroke-width="2"/>
</svg>
